<svg id="visual" viewBox="0 0 1350 675" width="1350" height="675" xmlns="http://www.w3.org/2000/svg" xmlns:xlink="http://www.w3.org/1999/xlink" version="1.1"><rect x="0" y="0" width="1350" height="675" fill="#52392f"></rect><path d="M0 183L135 269L270 234L405 209L540 246L675 163L810 165L945 242L1080 183L1215 156L1350 257L1350 0L1215 0L1080 0L945 0L810 0L675 0L540 0L405 0L270 0L135 0L0 0Z" fill="#947352"></path><path d="M0 169L135 117L270 184L405 219L540 94L675 125L810 99L945 112L1080 151L1215 219L1350 123L1350 0L1215 0L1080 0L945 0L810 0L675 0L540 0L405 0L270 0L135 0L0 0Z" fill="#826145"></path><path d="M0 72L135 102L270 28L405 55L540 46L675 140L810 53L945 119L1080 71L1215 46L1350 115L1350 0L1215 0L1080 0L945 0L810 0L675 0L540 0L405 0L270 0L135 0L0 0Z" fill="#704f38"></path></svg>