<svg id="visual" viewBox="0 0 1350 675" width="1350" height="675" xmlns="http://www.w3.org/2000/svg" xmlns:xlink="http://www.w3.org/1999/xlink" version="1.1"><rect x="0" y="0" width="1350" height="675" fill="#87CEEB"></rect><path d="M0 485L135 522L270 505L405 510L540 506L675 484L810 511L945 471L1080 491L1215 500L1350 499L1350 676L1215 676L1080 676L945 676L810 676L675 676L540 676L405 676L270 676L135 676L0 676Z" fill="#7ec850"></path><path d="M0 524L135 518L270 562L405 558L540 534L675 559L810 531L945 523L1080 543L1215 550L1350 543L1350 676L1215 676L1080 676L945 676L810 676L675 676L540 676L405 676L270 676L135 676L0 676Z" fill="#959a35"></path><path d="M0 587L135 560L270 595L405 562L540 579L675 580L810 584L945 583L1080 575L1215 596L1350 574L1350 676L1215 676L1080 676L945 676L810 676L675 676L540 676L405 676L270 676L135 676L0 676Z" fill="#8d7034"></path><path d="M0 630L135 635L270 607L405 614L540 630L675 636L810 609L945 613L1080 605L1215 614L1350 620L1350 676L1215 676L1080 676L945 676L810 676L675 676L540 676L405 676L270 676L135 676L0 676Z" fill="#704f38"></path></svg>