<svg id="visual" viewBox="0 0 1350 675" width="1350" height="675" xmlns="http://www.w3.org/2000/svg" xmlns:xlink="http://www.w3.org/1999/xlink" version="1.1"><path d="M0 143L84 237L169 190L253 244L338 143L422 210L506 143L591 210L675 197L759 271L844 204L928 69L1013 150L1097 62L1181 183L1266 190L1350 82L1350 0L1266 0L1181 0L1097 0L1013 0L928 0L844 0L759 0L675 0L591 0L506 0L422 0L338 0L253 0L169 0L84 0L0 0Z" fill="#73c0ff"></path><path d="M0 210L84 305L169 210L253 291L338 224L422 264L506 204L591 264L675 224L759 305L844 237L928 102L1013 190L1097 123L1181 217L1266 278L1350 129L1350 80L1266 188L1181 181L1097 60L1013 148L928 67L844 202L759 269L675 195L591 208L506 141L422 208L338 141L253 242L169 188L84 235L0 141Z" fill="#a6d3ff"></path><path d="M0 298L84 332L169 244L253 379L338 291L422 285L506 305L591 325L675 258L759 379L844 305L928 197L1013 210L1097 204L1181 291L1266 352L1350 183L1350 127L1266 276L1181 215L1097 121L1013 188L928 100L844 235L759 303L675 222L591 262L506 202L422 262L338 222L253 289L169 208L84 303L0 208Z" fill="#d0e7ff"></path><path d="M0 372L84 379L169 312L253 393L338 318L422 332L506 325L591 339L675 325L759 406L844 352L928 224L1013 224L1097 244L1181 345L1266 393L1350 251L1350 181L1266 350L1181 289L1097 202L1013 208L928 195L844 303L759 377L675 256L591 323L506 303L422 283L338 289L253 377L169 242L84 330L0 296Z" fill="#f7fbff"></path><path d="M0 460L84 480L169 379L253 507L338 420L422 494L506 507L591 467L675 420L759 480L844 494L928 460L1013 339L1097 413L1181 399L1266 507L1350 507L1350 249L1266 391L1181 343L1097 242L1013 222L928 222L844 350L759 404L675 323L591 337L506 323L422 330L338 316L253 391L169 310L84 377L0 370Z" fill="#ffffff"></path><path d="M0 480L84 534L169 440L253 575L338 467L422 541L506 534L591 501L675 473L759 494L844 514L928 514L1013 386L1097 460L1181 453L1266 534L1350 534L1350 505L1266 505L1181 397L1097 411L1013 337L928 458L844 492L759 478L675 418L591 465L506 505L422 492L338 418L253 505L169 377L84 478L0 458Z" fill="#f7fbff"></path><path d="M0 609L84 595L169 555L253 609L338 595L422 582L506 636L591 575L675 507L759 568L844 561L928 609L1013 514L1097 588L1181 555L1266 568L1350 622L1350 532L1266 532L1181 451L1097 458L1013 384L928 512L844 512L759 492L675 471L591 499L506 532L422 539L338 465L253 573L169 438L84 532L0 478Z" fill="#d0e7ff"></path><path d="M0 636L84 656L169 622L253 656L338 629L422 615L506 663L591 615L675 615L759 629L844 656L928 656L1013 622L1097 615L1181 629L1266 663L1350 649L1350 620L1266 566L1181 553L1097 586L1013 512L928 607L844 559L759 566L675 505L591 573L506 634L422 580L338 593L253 607L169 553L84 593L0 607Z" fill="#a6d3ff"></path><path d="M0 676L84 676L169 676L253 676L338 676L422 676L506 676L591 676L675 676L759 676L844 676L928 676L1013 676L1097 676L1181 676L1266 676L1350 676L1350 647L1266 661L1181 627L1097 613L1013 620L928 654L844 654L759 627L675 613L591 613L506 661L422 613L338 627L253 654L169 620L84 654L0 634Z" fill="#73c0ff"></path></svg>