<svg id="visual" viewBox="0 0 900 600" width="900" height="600" xmlns="http://www.w3.org/2000/svg" xmlns:xlink="http://www.w3.org/1999/xlink" version="1.1"><path d="M0 49L13.7 49C27.3 49 54.7 49 82 58C109.3 67 136.7 85 163.8 84C191 83 218 63 245.2 63C272.3 63 299.7 83 327 85C354.3 87 381.7 71 409 61C436.3 51 463.7 47 491 54C518.3 61 545.7 79 573 89C600.3 99 627.7 101 654.8 96C682 91 709 79 736.2 70C763.3 61 790.7 55 818 56C845.3 57 872.7 65 886.3 69L900 73L900 0L886.3 0C872.7 0 845.3 0 818 0C790.7 0 763.3 0 736.2 0C709 0 682 0 654.8 0C627.7 0 600.3 0 573 0C545.7 0 518.3 0 491 0C463.7 0 436.3 0 409 0C381.7 0 354.3 0 327 0C299.7 0 272.3 0 245.2 0C218 0 191 0 163.8 0C136.7 0 109.3 0 82 0C54.7 0 27.3 0 13.7 0L0 0Z" fill="#ffffff"></path><path d="M0 181L13.7 183C27.3 185 54.7 189 82 188C109.3 187 136.7 181 163.8 166C191 151 218 127 245.2 123C272.3 119 299.7 135 327 142C354.3 149 381.7 147 409 138C436.3 129 463.7 113 491 117C518.3 121 545.7 145 573 168C600.3 191 627.7 213 654.8 224C682 235 709 235 736.2 224C763.3 213 790.7 191 818 177C845.3 163 872.7 157 886.3 154L900 151L900 71L886.3 67C872.7 63 845.3 55 818 54C790.7 53 763.3 59 736.2 68C709 77 682 89 654.8 94C627.7 99 600.3 97 573 87C545.7 77 518.3 59 491 52C463.7 45 436.3 49 409 59C381.7 69 354.3 85 327 83C299.7 81 272.3 61 245.2 61C218 61 191 81 163.8 82C136.7 83 109.3 65 82 56C54.7 47 27.3 47 13.7 47L0 47Z" fill="#e9e9e6"></path><path d="M0 301L13.7 302C27.3 303 54.7 305 82 290C109.3 275 136.7 243 163.8 225C191 207 218 203 245.2 212C272.3 221 299.7 243 327 249C354.3 255 381.7 245 409 237C436.3 229 463.7 223 491 232C518.3 241 545.7 265 573 280C600.3 295 627.7 301 654.8 300C682 299 709 291 736.2 280C763.3 269 790.7 255 818 245C845.3 235 872.7 229 886.3 226L900 223L900 149L886.3 152C872.7 155 845.3 161 818 175C790.7 189 763.3 211 736.2 222C709 233 682 233 654.8 222C627.7 211 600.3 189 573 166C545.7 143 518.3 119 491 115C463.7 111 436.3 127 409 136C381.7 145 354.3 147 327 140C299.7 133 272.3 117 245.2 121C218 125 191 149 163.8 164C136.7 179 109.3 185 82 186C54.7 187 27.3 183 13.7 181L0 179Z" fill="#d3d3cd"></path><path d="M0 427L13.7 436C27.3 445 54.7 463 82 457C109.3 451 136.7 421 163.8 392C191 363 218 335 245.2 350C272.3 365 299.7 423 327 452C354.3 481 381.7 481 409 463C436.3 445 463.7 409 491 396C518.3 383 545.7 393 573 417C600.3 441 627.7 479 654.8 481C682 483 709 449 736.2 440C763.3 431 790.7 447 818 453C845.3 459 872.7 455 886.3 453L900 451L900 221L886.3 224C872.7 227 845.3 233 818 243C790.7 253 763.3 267 736.2 278C709 289 682 297 654.8 298C627.7 299 600.3 293 573 278C545.7 263 518.3 239 491 230C463.7 221 436.3 227 409 235C381.7 243 354.3 253 327 247C299.7 241 272.3 219 245.2 210C218 201 191 205 163.8 223C136.7 241 109.3 273 82 288C54.7 303 27.3 301 13.7 300L0 299Z" fill="#bdbdb5"></path><path d="M0 601L13.7 601C27.3 601 54.7 601 82 601C109.3 601 136.7 601 163.8 601C191 601 218 601 245.2 601C272.3 601 299.7 601 327 601C354.3 601 381.7 601 409 601C436.3 601 463.7 601 491 601C518.3 601 545.7 601 573 601C600.3 601 627.7 601 654.8 601C682 601 709 601 736.2 601C763.3 601 790.7 601 818 601C845.3 601 872.7 601 886.3 601L900 601L900 449L886.3 451C872.7 453 845.3 457 818 451C790.7 445 763.3 429 736.2 438C709 447 682 481 654.8 479C627.7 477 600.3 439 573 415C545.7 391 518.3 381 491 394C463.7 407 436.3 443 409 461C381.7 479 354.3 479 327 450C299.7 421 272.3 363 245.2 348C218 333 191 361 163.8 390C136.7 419 109.3 449 82 455C54.7 461 27.3 443 13.7 434L0 425Z" fill="#a8a89e"></path></svg>