<svg id="visual" viewBox="0 0 1350 675" width="1350" height="675" xmlns="http://www.w3.org/2000/svg" xmlns:xlink="http://www.w3.org/1999/xlink" version="1.1"><rect x="0" y="0" width="1350" height="675" fill="#faf9f9"></rect><path d="M0 481L135 401L270 426L405 469L540 420L675 496L810 517L945 516L1080 473L1215 387L1350 402L1350 676L1215 676L1080 676L945 676L810 676L675 676L540 676L405 676L270 676L135 676L0 676Z" fill="#e8d8ff"></path><path d="M0 553L135 548L270 513L405 418L540 473L675 425L810 453L945 411L1080 472L1215 429L1350 508L1350 676L1215 676L1080 676L945 676L810 676L675 676L540 676L405 676L270 676L135 676L0 676Z" fill="#ded5ff"></path><path d="M0 572L135 457L270 581L405 547L540 472L675 462L810 453L945 510L1080 531L1215 545L1350 551L1350 676L1215 676L1080 676L945 676L810 676L675 676L540 676L405 676L270 676L135 676L0 676Z" fill="#d2d1ff"></path><path d="M0 577L135 611L270 567L405 589L540 548L675 570L810 528L945 607L1080 568L1215 541L1350 601L1350 676L1215 676L1080 676L945 676L810 676L675 676L540 676L405 676L270 676L135 676L0 676Z" fill="#c6cfff"></path><path d="M0 624L135 566L270 569L405 555L540 590L675 618L810 615L945 548L1080 628L1215 583L1350 608L1350 676L1215 676L1080 676L945 676L810 676L675 676L540 676L405 676L270 676L135 676L0 676Z" fill="#b8ccfe"></path><path d="M0 588L135 590L270 647L405 606L540 602L675 649L810 599L945 599L1080 625L1215 659L1350 647L1350 676L1215 676L1080 676L945 676L810 676L675 676L540 676L405 676L270 676L135 676L0 676Z" fill="#a9cafc"></path></svg>