<svg id="visual" viewBox="0 0 900 600" width="900" height="600" xmlns="http://www.w3.org/2000/svg" xmlns:xlink="http://www.w3.org/1999/xlink" version="1.1"><path d="M0 121L56 79L113 61L169 79L225 115L281 121L338 61L394 61L450 67L506 91L563 49L619 127L675 73L731 97L788 61L844 61L900 127L900 0L844 0L788 0L731 0L675 0L619 0L563 0L506 0L450 0L394 0L338 0L281 0L225 0L169 0L113 0L56 0L0 0Z" fill="#ffffff"></path><path d="M0 283L56 223L113 259L169 229L225 223L281 289L338 217L394 259L450 241L506 307L563 199L619 223L675 343L731 175L788 235L844 259L900 211L900 125L844 59L788 59L731 95L675 71L619 125L563 47L506 89L450 65L394 59L338 59L281 119L225 113L169 77L113 59L56 77L0 119Z" fill="#cadfc1"></path><path d="M0 343L56 289L113 301L169 277L225 325L281 343L338 265L394 343L450 343L506 343L563 277L619 259L675 397L731 259L788 271L844 307L900 265L900 209L844 257L788 233L731 173L675 341L619 221L563 197L506 305L450 239L394 257L338 215L281 287L225 221L169 227L113 257L56 221L0 281Z" fill="#96c086"></path><path d="M0 439L56 439L113 361L169 379L225 379L281 415L338 349L394 499L450 409L506 493L563 421L619 397L675 481L731 409L788 421L844 421L900 355L900 263L844 305L788 269L731 257L675 395L619 257L563 275L506 341L450 341L394 341L338 263L281 341L225 323L169 275L113 299L56 287L0 341Z" fill="#60a14c"></path><path d="M0 601L56 601L113 601L169 601L225 601L281 601L338 601L394 601L450 601L506 601L563 601L619 601L675 601L731 601L788 601L844 601L900 601L900 353L844 419L788 419L731 407L675 479L619 395L563 419L506 491L450 407L394 497L338 347L281 413L225 377L169 377L113 359L56 437L0 437Z" fill="#178203"></path></svg>