<svg id="visual" viewBox="0 0 900 600" width="900" height="600" xmlns="http://www.w3.org/2000/svg" xmlns:xlink="http://www.w3.org/1999/xlink" version="1.1"><rect x="0" y="0" width="900" height="600" fill="#001122"></rect><path d="M0 429L82 428L164 433L245 438L327 419L409 459L491 438L573 443L655 456L736 411L818 447L900 443L900 601L818 601L736 601L655 601L573 601L491 601L409 601L327 601L245 601L164 601L82 601L0 601Z" fill="#f7caca"></path><path d="M0 465L82 474L164 451L245 450L327 471L409 473L491 461L573 450L655 474L736 471L818 468L900 448L900 601L818 601L736 601L655 601L573 601L491 601L409 601L327 601L245 601L164 601L82 601L0 601Z" fill="#cea6af"></path><path d="M0 483L82 466L164 485L245 485L327 459L409 485L491 487L573 456L655 468L736 484L818 463L900 474L900 601L818 601L736 601L655 601L573 601L491 601L409 601L327 601L245 601L164 601L82 601L0 601Z" fill="#a48494"></path><path d="M0 488L82 506L164 499L245 504L327 514L409 507L491 486L573 502L655 496L736 494L818 516L900 490L900 601L818 601L736 601L655 601L573 601L491 601L409 601L327 601L245 601L164 601L82 601L0 601Z" fill="#796479"></path><path d="M0 524L82 536L164 526L245 528L327 526L409 508L491 517L573 514L655 536L736 531L818 512L900 506L900 601L818 601L736 601L655 601L573 601L491 601L409 601L327 601L245 601L164 601L82 601L0 601Z" fill="#4f465c"></path><path d="M0 559L82 555L164 552L245 542L327 561L409 539L491 559L573 558L655 541L736 555L818 538L900 532L900 601L818 601L736 601L655 601L573 601L491 601L409 601L327 601L245 601L164 601L82 601L0 601Z" fill="#282b3f"></path><path d="M0 568L82 572L164 580L245 572L327 559L409 579L491 560L573 572L655 568L736 569L818 567L900 565L900 601L818 601L736 601L655 601L573 601L491 601L409 601L327 601L245 601L164 601L82 601L0 601Z" fill="#001122"></path></svg>