<svg id="visual" viewBox="0 0 900 600" width="900" height="600" xmlns="http://www.w3.org/2000/svg" xmlns:xlink="http://www.w3.org/1999/xlink" version="1.1"><rect x="0" y="0" width="900" height="600" fill="#FCAF3C"></rect><path d="M0 454L82 425L164 434L245 429L327 418L409 413L491 427L573 458L655 426L736 444L818 413L900 430L900 601L818 601L736 601L655 601L573 601L491 601L409 601L327 601L245 601L164 601L82 601L0 601Z" fill="#f5730a"></path><path d="M0 436L82 448L164 437L245 447L327 470L409 451L491 481L573 481L655 458L736 431L818 469L900 471L900 601L818 601L736 601L655 601L573 601L491 601L409 601L327 601L245 601L164 601L82 601L0 601Z" fill="#e3630a"></path><path d="M0 469L82 463L164 456L245 502L327 465L409 473L491 473L573 464L655 491L736 491L818 502L900 462L900 601L818 601L736 601L655 601L573 601L491 601L409 601L327 601L245 601L164 601L82 601L0 601Z" fill="#d15308"></path><path d="M0 514L82 482L164 482L245 482L327 483L409 482L491 509L573 515L655 500L736 493L818 486L900 493L900 601L818 601L736 601L655 601L573 601L491 601L409 601L327 601L245 601L164 601L82 601L0 601Z" fill="#be4407"></path><path d="M0 508L82 518L164 519L245 510L327 519L409 529L491 531L573 535L655 526L736 531L818 535L900 537L900 601L818 601L736 601L655 601L573 601L491 601L409 601L327 601L245 601L164 601L82 601L0 601Z" fill="#ac3505"></path><path d="M0 536L82 557L164 533L245 549L327 538L409 555L491 560L573 557L655 536L736 557L818 557L900 559L900 601L818 601L736 601L655 601L573 601L491 601L409 601L327 601L245 601L164 601L82 601L0 601Z" fill="#992503"></path><path d="M0 576L82 570L164 564L245 566L327 560L409 578L491 568L573 573L655 562L736 559L818 580L900 571L900 601L818 601L736 601L655 601L573 601L491 601L409 601L327 601L245 601L164 601L82 601L0 601Z" fill="#871400"></path></svg>